# xmcd CD database file
#
# Track frame offsets:
#	150
#	20742
#	34537
#	40447
#	61559
#	92552
#	99348
#	113605
#	130007
#	151866
#	160255
#	179073
#	199091
#	206190
#	229482
#	248741
#	280020
#	287159
#
# Disc length: 4272 seconds
#
# Revision: 0
# Processed by: cddbd v1.5.2PL0 Copyright (c) Steve Scherf et al.
# Submitted via: CDex 1.70beta2
#
DISCID=f510ae12
DTITLE=Jhon Kahsen - Love's Bitter Rage: A Peace and Justice Suite
DYEAR=2005
DGENRE=Jazz
TTITLE0=Opening Main Theme: Love's Bitter Rage
TTITLE1=Global Jubilation (love has a vision of a better tomorrow)
TTITLE2=drum interlude #1
TTITLE3=No Little Lament (in ode to Booker Little)
TTITLE4=Love's Bitter Rage (English)
TTITLE5=drum interlude # 2
TTITLE6=Song of No Return (may love speed this song to where the lost ones have gone...)
TTITLE7=Orphan World or: Love's Eternal Yearning
TTITLE8=Run Free (oh, but would earth know heaven if only could love)
TTITLE9=drum interlude #3
TTITLE10=Adrift (love to be lost at sea waves as parting from thee)
TTITLE11=No Little Lament II
TTITLE12=drum interlude #4
TTITLE13=Global Jubilation II (love's anticipation)
TTITLE14=Love Survives
TTITLE15=Love's Bitter Rage (Spanish)
TTITLE16=drum summation
TTITLE17=Closing Main Theme: Love's Bitter Rage
EXTD=YEAR: 2005
EXTT0=
EXTT1=
EXTT2=
EXTT3=
EXTT4=
EXTT5=
EXTT6=
EXTT7=
EXTT8=
EXTT9=
EXTT10=
EXTT11=
EXTT12=
EXTT13=
EXTT14=
EXTT15=
EXTT16=
EXTT17=
PLAYORDER=
